<?xml version="1.0" standalone="no"?><svg xmlns="http://www.w3.org/2000/svg" viewBox="0 0 1440 320"><path fill="#521386" fill-opacity="1" d="M0,96L30,90.7C60,85,120,75,180,85.3C240,96,300,128,360,133.3C420,139,480,117,540,90.7C600,64,660,32,720,37.3C780,43,840,85,900,106.7C960,128,1020,128,1080,117.3C1140,107,1200,85,1260,112C1320,139,1380,213,1410,250.7L1440,288L1440,320L1410,320C1380,320,1320,320,1260,320C1200,320,1140,320,1080,320C1020,320,960,320,900,320C840,320,780,320,720,320C660,320,600,320,540,320C480,320,420,320,360,320C300,320,240,320,180,320C120,320,60,320,30,320L0,320Z"></path></svg>